<svg width="128" height="128" viewBox="0 0 128 128" fill="none" xmlns="http://www.w3.org/2000/svg">
<path d="M119.73 34.3617C113.155 28.9123 103.033 25.2637 89.3892 23.4027L79.3631 55.1413C79.1466 56.3054 78.7741 57.6276 78.1965 59.1512C77.1737 61.6975 75.9415 63.7952 74.4938 65.4459C73.0442 67.1011 71.4217 68.3915 69.6244 69.3321C67.8254 70.2674 65.8702 70.9131 63.7571 71.269C61.644 71.6223 59.4573 71.7336 57.1987 71.6029C54.9375 71.4721 53.0142 71.1657 51.4316 70.6825C49.8472 70.2003 48.3906 69.4001 47.0626 68.2802C46.0806 67.1806 45.5093 65.7383 45.3531 63.9506C45.1961 62.163 45.6308 59.9523 46.6581 57.3185C47.5762 55.0292 48.7383 53.0331 50.1471 51.3382C51.5549 49.6415 53.2014 48.3255 55.0838 47.3928C56.882 46.4575 58.815 45.8313 60.8846 45.516C62.9489 45.2033 65.2448 45.1203 67.765 45.266C69.8515 45.3888 71.7943 45.6944 73.5969 46.1916C74.4521 46.4257 75.2008 46.7331 75.8519 47.104L83.5494 22.735C81.6492 22.5566 79.7055 22.4002 77.6865 22.2845C58.2579 21.1549 41.9289 23.3895 28.6923 28.9758C15.4585 34.5667 6.63441 42.8557 2.22725 53.8421C0.904574 57.2107 0.193997 60.385 0.089318 63.3677L0.080445 63.3633C-1.18457 84.9696 12.7617 97.1422 21.3773 102.555C24.8343 104.859 27.9082 106 27.9082 106L31.8567 93.4361L33.0241 90.3484C38.2217 91.327 44.0021 92.008 50.3875 92.378C69.9509 93.5139 86.35 91.2899 99.5847 85.6973C112.817 80.111 121.567 71.8855 125.835 61.0183C130.099 50.1591 128.065 41.2721 119.73 34.3617Z" fill="url(#paint0_linear_2_15)"/>
<defs>
<linearGradient id="paint0_linear_2_15" x1="63.9993" y1="106.001" x2="63.9993" y2="22.0002" gradientUnits="userSpaceOnUse">
<stop stop-color="#8E8E8E"/>
<stop offset="1" stop-color="#B5B5B5"/>
</linearGradient>
</defs>
</svg>
